<svg xmlns="http://www.w3.org/2000/svg" xmlns:xlink="http://www.w3.org/1999/xlink" width="253.865" height="1440" viewBox="0 0 253.865 1440"><defs><linearGradient id="linear-gradient" x1=".5" x2=".5" y2="1" gradientUnits="objectBoundingBox"><stop offset="0" stop-color="#f7ab96"/><stop offset="1" stop-color="#ea7c69"/></linearGradient></defs><path id="wave" fill="url(#linear-gradient)" d="M0,160l14.1-21.3C28.2,117,56,75,85,90.7c27.9,16.3,56,90.3,84,112C197.6,224,226,192,254,160c28.4-32,57-64,85-80,28.1-16,56-16,85-10.7,27.8,5.7,56,15.7,84,53.4C536.5,160,565,224,593,245.3c28.2,21.7,56-.3,85-21.3,27.9-21,56-43,84-64,28.6-21,57-43,85-32,28.3,11,57,53,85,80s56,37,84,48c28.7,11,57,21,85-5.3,28.4-26.7,57-90.7,85-96,28.1-5.7,56,48.3,85,37.3,27.8-11,56-85,84-85.3,28.5.3,57,74.3,71,112l14,37.3v64H0Z" transform="translate(-66.135 1440) rotate(-90)"/></svg>